<svg width="815" height="287" viewBox="0 0 815 287" fill="none" xmlns="http://www.w3.org/2000/svg">
<mask id="mask0_226_6566" style="mask-type:alpha" maskUnits="userSpaceOnUse" x="0" y="0" width="815" height="287">
<path d="M0 19C0 8.50659 8.50659 0 19 0H796C806.493 0 815 8.50659 815 19V268C815 278.493 806.493 287 796 287H19C8.50658 287 0 278.493 0 268V19Z" fill="#20A687"/>
</mask>
<g mask="url(#mask0_226_6566)">
<path d="M23.6813 114.416L12.4604 121.258L-14.2528 93.9689L-51.6413 136.32L-57.0289 139.625L-85.997 140.176L-60.8141 165.913L-72.035 172.755L-108.24 135.762L-97.0581 128.95L-63.0135 129.12L-23.8223 84.3111L-12.5433 77.4224L23.6813 114.416Z" fill="#FEB3D2"/>
<path d="M71.9342 25.9337L60.7134 32.7761L34.0002 5.48682L-3.38837 47.8536L-8.77593 51.1428L-37.7441 51.6935L-12.5612 77.4462L-23.782 84.2886L-59.9873 47.2949L-48.8246 40.4836L-14.7605 40.6379L24.4113 -4.17071L35.7096 -11.0597L71.9342 25.9337Z" fill="#FEB3D2"/>
<path d="M36.4266 47.5733L34.4112 48.799L5.12153 18.8879L-14.6239 21.7427L-15.9604 19.8383L6.20721 16.7127L36.4266 47.5733Z" fill="#FEB3D2"/>
<path d="M192.611 11.4277L181.39 18.2549L154.677 -9.03443L117.308 33.3321L111.901 36.6216L82.9519 37.1873L108.135 62.9247L96.9139 69.7671L60.7087 32.7735L71.8714 25.9622L105.935 26.1317L145.107 -18.6922L156.406 -25.5659L192.611 11.4277Z" fill="#FEB3D2"/>
<path d="M157.104 33.0734L155.089 34.2992L125.799 4.37281L106.054 7.22771L104.737 5.32302L126.904 2.1975L157.104 33.0734Z" fill="#FEB3D2"/>
<path d="M118.246 56.7641L116.211 57.9901L85.9142 27.0391L104.735 5.32111L106.226 7.11722L89.0533 26.9432L118.246 56.7641Z" fill="#FEB3D2"/>
<path d="M95.7643 188.062L84.5435 194.905L57.8302 167.615L20.4611 209.982L15.0542 213.271L-13.914 213.822L11.2882 239.559L0.0674157 246.402L-36.1572 209.408L-24.9751 202.597L9.08891 202.766L48.2607 157.958L59.5591 151.069L95.7643 188.062Z" fill="#FEB3D2"/>
<path d="M60.2552 209.703L58.2396 210.929L28.95 181.018L9.20455 183.857L7.86805 181.953L30.0551 178.827L60.2552 209.703Z" fill="#FEB3D2"/>
<path d="M21.383 233.398L19.3675 234.624L-10.9295 203.673L7.8715 181.955L9.38241 183.751L-7.8098 203.577L21.383 233.398Z" fill="#FEB3D2"/>
<path d="M144.006 99.5665L132.785 106.409L106.072 79.1196L68.6837 121.486L63.2961 124.776L34.3279 125.342L59.5302 151.079L48.3094 157.921L12.0847 120.928L23.2668 114.116L57.3309 114.271L96.5027 69.4619L107.801 62.5729L144.006 99.5665Z" fill="#FEB3D2"/>
<path d="M108.508 121.214L106.493 122.44L77.203 92.5285L57.4575 95.3833L56.121 93.4789L78.2887 90.3533L108.508 121.214Z" fill="#FEB3D2"/>
<path d="M69.6379 144.921L67.6224 146.146L37.3254 115.18L56.1264 93.4776L57.6373 95.2735L40.4451 115.084L69.6379 144.921Z" fill="#FEB3D2"/>
<path d="M264.708 85.0642L253.488 91.8914L226.774 64.6173L189.386 106.969L183.998 110.273L155.03 110.824L180.213 136.561L168.992 143.404L132.787 106.41L143.95 99.5989L178.014 99.7683L217.205 54.9443L228.484 48.0707L264.708 85.0642Z" fill="#FEB3D2"/>
<path d="M229.206 106.696L227.19 107.937L197.901 78.0103L178.155 80.8652L176.819 78.9608L198.986 75.8352L229.206 106.696Z" fill="#FEB3D2"/>
<path d="M190.33 130.403L188.314 131.629L157.998 100.678L176.818 78.9598L178.329 80.7557L161.137 100.582L190.33 130.403Z" fill="#FEB3D2"/>
<path d="M312.957 -3.42604L301.736 3.4164L275.023 -23.8729L237.635 18.4939L232.228 21.7833L203.279 22.3338L228.462 48.0864L217.241 54.9136L181.036 17.9352L192.198 11.1086L226.262 11.2782L265.434 -33.5304L276.733 -40.4194L312.957 -3.42604Z" fill="#FEB3D2"/>
<path d="M277.456 18.2217L275.421 19.4477L246.151 -10.4637L226.406 -7.62407L225.069 -9.5133L247.237 -12.6541L277.456 18.2217Z" fill="#FEB3D2"/>
<path d="M238.583 41.9129L236.567 43.1539L206.251 12.1879L225.071 -9.51482L226.563 -7.71872L209.39 12.092L238.583 41.9129Z" fill="#FEB3D2"/>
<path d="M433.621 -17.9268L422.401 -11.0844L395.707 -38.3739L358.318 3.99284L352.911 7.28231L323.943 7.83299L349.145 33.5854L337.924 40.4126L301.719 3.43421L312.882 -3.37713L346.946 -3.22286L386.118 -48.0315L397.416 -54.9204L433.621 -17.9268Z" fill="#FEB3D2"/>
<path d="M398.132 3.72072L396.097 4.94671L366.808 -24.9645L347.062 -22.1096L345.745 -24.0143L367.913 -27.1398L398.132 3.72072Z" fill="#FEB3D2"/>
<path d="M359.267 27.4129L357.232 28.6541L326.935 -2.3121L345.755 -24.0148L347.247 -22.2339L330.074 -2.40796L359.267 27.4129Z" fill="#FEB3D2"/>
<path d="M47.5306 276.559L36.3098 283.387L9.59655 256.112L-27.792 298.464L-33.1989 301.769L-62.1477 302.319L-36.9455 328.056L-48.1856 334.899L-84.3909 297.905L-73.2088 291.094L-39.1642 291.263L0.0270272 246.455L11.3254 239.566L47.5306 276.559Z" fill="#FEB3D2"/>
<path d="M12.0323 298.193L10.0169 299.434L-19.2728 269.507L-39.0183 272.362L-40.3548 270.458L-18.1871 267.332L12.0323 298.193Z" fill="#FEB3D2"/>
<path d="M168.185 262.06L156.984 268.902L130.271 241.612L92.8822 283.964L87.4946 287.268L58.5265 287.819L83.7094 313.557L72.4885 320.399L36.2833 283.405L47.446 276.594L81.51 276.763L120.682 231.955L131.98 225.066L168.185 262.06Z" fill="#FEB3D2"/>
<path d="M132.701 283.703L130.686 284.929L101.396 255.018L81.6314 257.858L80.3143 255.953L102.482 252.827L132.701 283.703Z" fill="#FEB3D2"/>
<path d="M93.8299 307.397L91.8145 308.623L61.4982 277.672L80.3185 255.954L81.8294 257.75L64.6372 277.576L93.8299 307.397Z" fill="#FEB3D2"/>
<path d="M216.459 173.569L205.238 180.412L178.525 153.122L141.137 195.489L135.749 198.778L106.781 199.329L131.964 225.081L120.743 231.909L84.5377 194.93L95.7004 188.119L129.764 188.273L168.936 143.465L180.235 136.576L216.459 173.569Z" fill="#FEB3D2"/>
<path d="M180.953 195.22L178.918 196.461L149.628 166.535L129.902 169.39L128.566 167.485L150.733 164.36L180.953 195.22Z" fill="#FEB3D2"/>
<path d="M142.078 218.905L140.063 220.146L109.746 189.18L128.567 167.477L130.058 169.258L112.885 189.084L142.078 218.905Z" fill="#FEB3D2"/>
<path d="M337.145 159.068L325.924 165.895L299.21 138.606L261.822 180.973L256.434 184.262L227.466 184.828L252.668 210.565L241.448 217.408L205.242 180.414L216.405 173.603L250.469 173.772L289.641 128.964L300.939 122.059L337.145 159.068Z" fill="#FEB3D2"/>
<path d="M301.633 180.697L299.617 181.938L270.327 152.011L250.582 154.866L249.245 152.962L271.413 149.836L301.633 180.697Z" fill="#FEB3D2"/>
<path d="M262.765 204.402L260.75 205.628L230.453 174.662L249.254 152.959L250.764 154.755L233.572 174.581L262.765 204.402Z" fill="#FEB3D2"/>
<path d="M385.39 70.5779L374.169 77.4203L347.456 50.1309L310.067 92.4977L304.68 95.787L275.712 96.3377L300.914 122.09L289.693 128.917L253.468 91.9391L264.651 85.1275L298.715 85.2818L337.886 40.4732L349.185 33.5842L385.39 70.5779Z" fill="#FEB3D2"/>
<path d="M349.887 92.2197L347.872 93.4455L318.582 63.5343L298.836 66.3892L297.5 64.4848L319.668 61.344L349.887 92.2197Z" fill="#FEB3D2"/>
<path d="M311.031 115.916L308.996 117.157L278.699 86.1908L297.5 64.4883L299.011 66.269L281.819 86.0952L311.031 115.916Z" fill="#FEB3D2"/>
<path d="M506.072 56.0773L494.852 62.9197L468.138 35.6304L430.75 77.9972L425.362 81.2864L396.394 81.8371L421.596 107.59L410.376 114.432L374.151 77.4385L385.333 70.627L419.378 70.7815L458.569 25.9726L469.867 19.0836L506.072 56.0773Z" fill="#FEB3D2"/>
<path d="M470.563 77.7168L468.547 78.9426L439.258 49.0314L419.512 51.871L418.176 49.9818L440.343 46.8411L470.563 77.7168Z" fill="#FEB3D2"/>
<path d="M431.691 101.412L429.675 102.653L399.359 71.6869L418.179 49.9842L419.69 51.7801L402.498 71.5911L431.691 101.412Z" fill="#FEB3D2"/>
<path d="M554.323 -32.3987L543.102 -25.5715L516.389 -52.8609L479.001 -10.4941L473.613 -7.20484L444.645 -6.63891L469.847 19.0983L458.607 25.9409L422.402 -11.0527L433.584 -17.8642L467.648 -17.71L506.82 -62.5186L518.118 -69.3924L554.323 -32.3987Z" fill="#FEB3D2"/>
<path d="M479.937 12.9379L477.922 14.1637L447.605 -16.8023L466.426 -38.505L467.936 -36.7092L450.744 -16.883L479.937 12.9379Z" fill="#FEB3D2"/>
<path d="M288.546 247.21L277.325 254.052L250.612 226.763L213.223 269.13L207.836 272.419L178.867 272.985L204.07 298.722L192.849 305.549L156.624 268.571L167.806 261.759L201.851 261.914L241.042 217.105L252.341 210.216L288.546 247.21Z" fill="#FEB3D2"/>
<path d="M253.038 268.853L251.023 270.078L221.733 240.167L201.988 243.022L200.651 241.118L222.819 237.977L253.038 268.853Z" fill="#FEB3D2"/>
<path d="M214.159 292.548L212.144 293.789L181.827 262.823L200.648 241.12L202.158 242.901L184.966 262.727L214.159 292.548Z" fill="#FEB3D2"/>
<path d="M409.218 232.693L397.997 239.535L371.304 212.246L333.915 254.612L328.508 257.917L299.54 258.468L324.742 284.205L313.521 291.047L277.316 254.054L288.479 247.242L322.543 247.412L361.715 202.588L373.013 195.714L409.218 232.693Z" fill="#FEB3D2"/>
<path d="M373.716 254.337L371.701 255.578L342.411 225.651L322.666 228.506L321.349 226.601L343.516 223.476L373.716 254.337Z" fill="#FEB3D2"/>
<path d="M334.853 278.045L332.819 279.271L302.522 248.32L321.342 226.602L322.834 228.398L305.661 248.224L334.853 278.045Z" fill="#FEB3D2"/>
<path d="M457.475 144.217L446.254 151.059L419.541 123.77L382.171 166.136L376.765 169.426L347.796 169.977L372.999 195.714L361.778 202.556L325.573 165.578L336.735 158.751L370.799 158.921L409.971 114.112L421.269 107.223L457.475 144.217Z" fill="#FEB3D2"/>
<path d="M421.968 165.862L419.953 167.087L390.663 137.176L370.937 140.016L369.6 138.126L391.768 134.986L421.968 165.862Z" fill="#FEB3D2"/>
<path d="M383.108 189.555L381.092 190.797L350.776 159.83L369.596 138.128L371.088 139.909L353.915 159.735L383.108 189.555Z" fill="#FEB3D2"/>
<path d="M578.151 129.712L566.93 136.554L540.217 109.265L502.847 151.631L497.441 154.921L468.472 155.487L493.675 181.224L482.454 188.051L446.229 151.073L457.411 144.261L491.475 144.416L530.647 99.607L541.945 92.718L578.151 129.712Z" fill="#FEB3D2"/>
<path d="M542.643 151.361L540.627 152.587L511.337 122.676L491.592 125.531L490.255 123.626L512.442 120.485L542.643 151.361Z" fill="#FEB3D2"/>
<path d="M503.773 175.052L501.757 176.293L471.46 145.327L490.261 123.624L491.772 125.405L474.58 145.231L503.773 175.052Z" fill="#FEB3D2"/>
<path d="M626.405 41.2259L615.184 48.0684L588.471 20.7942L551.082 63.1458L545.695 66.4351L516.727 67.001L541.929 92.7382L530.708 99.5806L494.503 62.5869L505.666 55.7756L539.73 55.9451L578.901 11.1213L590.2 4.24755L626.405 41.2259Z" fill="#FEB3D2"/>
<path d="M590.893 62.8695L588.878 64.1106L559.588 34.1994L539.843 37.039L538.506 35.1346L560.693 32.0088L590.893 62.8695Z" fill="#FEB3D2"/>
<path d="M552.022 86.5795L550.007 87.8053L519.69 56.8392L538.511 35.1365L540.021 36.9324L522.829 56.7434L552.022 86.5795Z" fill="#FEB3D2"/>
<path d="M675.021 -46.9352L663.8 -40.0927L637.086 -67.3821L599.717 -25.0155L594.31 -21.7261L565.342 -21.1601L590.544 4.57702L579.324 11.4195L543.118 -25.5742L554.281 -32.3855L588.345 -32.2312L627.517 -77.0399L638.815 -83.9289L675.021 -46.9352Z" fill="#FEB3D2"/>
<path d="M747.101 26.7044L735.9 33.5466L709.187 6.25728L671.798 48.6241L666.391 51.9135L637.423 52.4795L662.625 78.2167L651.405 85.0591L615.199 48.0654L626.362 41.2541L660.426 41.4084L699.598 -3.40021L710.896 -10.2892L747.101 26.7044Z" fill="#FEB3D2"/>
<path d="M711.617 48.3539L709.582 49.5951L680.292 19.6687L660.547 22.5236L659.23 20.619L681.397 17.4781L711.617 48.3539Z" fill="#FEB3D2"/>
<path d="M672.741 72.0571L670.725 73.2828L640.409 42.3168L659.229 20.6141L660.721 22.4102L643.548 42.2362L672.741 72.0571Z" fill="#FEB3D2"/>
<path d="M360.316 320.534L349.095 327.376L322.382 300.087L285.013 342.453L279.606 345.743L250.657 346.308L275.84 372.046L264.619 378.888L228.414 341.895L239.577 335.083L273.641 335.253L312.812 290.429L324.111 283.54L360.316 320.534Z" fill="#FEB3D2"/>
<path d="M481.011 306.031L469.79 312.873L443.077 285.584L405.689 327.951L400.301 331.225L371.333 331.791L396.535 357.528L385.314 364.37L349.09 327.377L360.272 320.565L394.336 320.735L433.508 275.926L444.806 269.037L481.011 306.031Z" fill="#FEB3D2"/>
<path d="M529.258 217.539L518.037 224.382L491.324 197.092L453.935 239.459L448.548 242.748L419.579 243.314L444.762 269.052L433.561 275.894L397.336 238.9L408.518 232.089L442.563 232.243L481.754 187.435L493.053 180.546L529.258 217.539Z" fill="#FEB3D2"/>
<path d="M493.756 239.188L491.741 240.429L462.451 210.502L442.706 213.357L441.369 211.453L463.537 208.312L493.756 239.188Z" fill="#FEB3D2"/>
<path d="M454.883 262.892L452.868 264.118L422.552 233.152L441.372 211.449L442.883 213.245L425.691 233.056L454.883 262.892Z" fill="#FEB3D2"/>
<path d="M649.941 203.037L638.72 209.88L612.007 182.59L574.618 224.957L569.211 228.247L540.262 228.812L565.445 254.55L554.225 261.392L518.019 224.399L529.201 217.587L563.246 217.741L602.437 172.933L613.716 166.059L649.941 203.037Z" fill="#FEB3D2"/>
<path d="M614.435 224.685L612.42 225.926L583.13 196L563.385 198.854L562.048 196.95L584.216 193.824L614.435 224.685Z" fill="#FEB3D2"/>
<path d="M575.566 248.391L573.551 249.617L543.235 218.651L562.055 196.948L563.566 198.744L546.374 218.57L575.566 248.391Z" fill="#FEB3D2"/>
<path d="M698.19 114.562L686.969 121.405L660.256 94.1153L622.867 136.482L617.46 139.772L588.512 140.322L613.695 166.059L602.474 172.902L566.268 135.908L577.431 129.097L611.495 129.266L650.686 84.4576L661.965 77.5688L698.19 114.562Z" fill="#FEB3D2"/>
<path d="M662.684 136.206L660.649 137.432L631.379 107.521L611.633 110.36L610.297 108.456L632.464 105.33L662.684 136.206Z" fill="#FEB3D2"/>
<path d="M623.816 159.901L621.801 161.127L591.484 130.176L610.305 108.458L611.816 110.254L594.623 130.08L623.816 159.901Z" fill="#FEB3D2"/>
<path d="M601.347 291.181L590.126 298.023L563.413 270.734L526.044 313.101L520.637 316.39L491.668 316.956L516.871 342.693L505.65 349.536L469.445 312.542L480.607 305.731L514.671 305.885L553.843 261.076L565.141 254.187L601.347 291.181Z" fill="#FEB3D2"/>
<path d="M565.84 312.823L563.824 314.064L534.535 284.137L514.789 286.992L513.453 285.088L535.64 281.962L565.84 312.823Z" fill="#FEB3D2"/>
<path d="M526.983 336.517L524.949 337.759L494.652 306.792L513.453 285.09L514.964 286.886L497.771 306.697L526.983 336.517Z" fill="#FEB3D2"/>
<path d="M722.026 276.675L710.806 283.517L684.092 256.228L646.704 298.595L641.316 301.884L612.348 302.45L637.55 328.187L626.31 335.03L590.105 298.036L601.287 291.225L635.351 291.379L674.523 246.57L685.821 239.681L722.026 276.675Z" fill="#FEB3D2"/>
<path d="M686.518 298.324L684.503 299.565L655.213 269.638L635.468 272.493L634.131 270.589L656.299 267.463L686.518 298.324Z" fill="#FEB3D2"/>
<path d="M647.638 322.031L645.622 323.256L615.306 292.29L634.126 270.588L635.637 272.384L618.445 292.195L647.638 322.031Z" fill="#FEB3D2"/>
<path d="M770.279 188.202L759.058 195.044L732.345 167.755L694.957 210.122L689.569 213.411L660.601 213.962L685.803 239.699L674.582 246.541L638.358 209.548L649.54 202.736L683.584 202.906L722.776 158.097L734.074 151.208L770.279 188.202Z" fill="#FEB3D2"/>
<path d="M734.77 209.83L732.755 211.071L703.465 181.16L683.72 184L682.383 182.111L704.551 178.97L734.77 209.83Z" fill="#FEB3D2"/>
<path d="M695.889 233.54L693.874 234.766L663.557 203.815L682.378 182.113L683.889 183.893L666.697 203.72L695.889 233.54Z" fill="#FEB3D2"/>
<path d="M842.702 262.189L831.481 269.046L804.768 241.757L767.399 284.108L762.012 287.398L733.043 287.964L758.226 313.701L747.006 320.543L710.8 283.55L721.963 276.739L756.027 276.908L795.199 232.099L806.497 225.21L842.702 262.189Z" fill="#FEB3D2"/>
<path d="M807.211 283.834L805.176 285.076L775.906 255.149L756.141 258.004L754.824 256.099L776.992 252.974L807.211 283.834Z" fill="#FEB3D2"/>
<path d="M768.341 307.543L766.306 308.769L736.009 277.803L754.83 256.1L756.321 257.897L739.148 277.723L768.341 307.543Z" fill="#FEB3D2"/>
<path d="M818.892 100.029L807.671 106.871L780.958 79.597L743.57 121.949L738.182 125.238L709.214 125.804L734.416 151.541L723.196 158.383L686.99 121.39L698.153 114.578L732.217 114.748L771.389 69.924L782.668 63.0505L818.892 100.029Z" fill="#FEB3D2"/>
<path d="M783.385 121.689L781.369 122.915L752.08 93.0041L732.334 95.8437L730.998 93.9392L753.165 90.8137L783.385 121.689Z" fill="#FEB3D2"/>
<path d="M744.515 145.381L742.5 146.607L712.183 115.641L731.004 93.9383L732.515 95.7342L715.322 115.56L744.515 145.381Z" fill="#FEB3D2"/>
<path d="M867.138 11.5558L855.917 18.3982L829.204 -8.89111L791.816 33.4756L786.428 36.7649L757.46 37.3156L782.662 63.0528L771.441 69.9105L735.217 32.9018L746.399 26.1055L780.463 26.2598L819.635 -18.5489L830.933 -25.4379L867.138 11.5558Z" fill="#FEB3D2"/>
<path d="M831.636 33.2021L829.621 34.4279L800.331 4.51675L780.586 7.3564L779.249 5.46717L801.417 2.32641L831.636 33.2021Z" fill="#FEB3D2"/>
<path d="M792.769 56.8943L790.753 58.1354L760.437 27.1693L779.257 5.46662L780.768 7.24726L763.576 27.0735L792.769 56.8943Z" fill="#FEB3D2"/>
<path d="M890.973 173.681L879.752 180.523L853.039 153.218L815.669 195.585L810.263 198.89L781.294 199.44L806.497 225.178L795.276 232.02L759.071 195.026L770.233 188.215L804.297 188.385L843.469 143.576L854.767 136.687L890.973 173.681Z" fill="#FEB3D2"/>
<path d="M855.486 195.316L853.451 196.557L824.162 166.63L804.436 169.485L803.08 167.581L825.267 164.455L855.486 195.316Z" fill="#FEB3D2"/>
<path d="M816.608 219.019L814.573 220.245L784.276 189.294L803.077 167.576L804.588 169.372L787.396 189.198L816.608 219.019Z" fill="#FEB3D2"/>
<path d="M939.22 85.1982L927.999 92.0406L901.286 64.7513L863.897 107.118L858.51 110.407L829.542 110.958L854.744 136.71L843.523 143.538L807.318 106.544L818.48 99.7479L852.545 99.9022L891.716 55.0936L903.015 48.2046L939.22 85.1982Z" fill="#FEB3D2"/>
</g>
</svg>
